# xmcd
# 
# Track frame offsets:
#     150
#     23828
#     42502
#     56403
#     75413
#     102177
#     121551
#     142926
#     174870
#     190003
#     213535
#     235027
#     260399
#     282327
#     294837
# 
# Disc length: 4247
# 
# Revision: 6
# Processed by: cddbd v1.5.2PL0 Copyright (c) Steve Scherf et al.
# Submitted via: fre:ac v1.0.31
# 
DISCID=be10950f
DTITLE=Van Morrison - You're Driving Me Crazy
DYEAR=2018
DGENRE=Jazz
TTITLE0=Miss Otis Regrets
TTITLE1=Hold It Right There
TTITLE2=All Saints Day
TTITLE3=The Way Young Lovers Do
TTITLE4=The Things I Used To Do
TTITLE5=Travellin' Light
TTITLE6=Close Enough For Jazz
TTITLE7=Goldfish Bowl
TTITLE8=Evening Shadows
TTITLE9=Magic Time
TTITLE10=You're Driving Me Crazy
TTITLE11=Everyday I Have The Blues
TTITLE12=Have I Told You Lately
TTITLE13=Sticks And Stones
TTITLE14=Celtic Swing
EXTD=YEAR: 2018
EXTT0=
EXTT1=
EXTT2=
EXTT3=
EXTT4=
EXTT5=
EXTT6=
EXTT7=
EXTT8=
EXTT9=
EXTT10=
EXTT11=
EXTT12=
EXTT13=
EXTT14=
PLAYORDER=
